<svg id="Layer_1" data-name="Layer 1" xmlns="http://www.w3.org/2000/svg" xmlns:xlink="http://www.w3.org/1999/xlink" width="392" height="726" viewBox="0 0 392 726"><defs><style>.cls-1{fill:#fff;}.cls-2{fill:none;stroke:#191919;stroke-miterlimit:10;stroke-width:15px;}.cls-3{fill:#191919;}.cls-4{fill:#262626;}</style></defs><title>frutas</title><rect class="cls-1" x="34" y="601" width="318" height="93" rx="29"/><rect x="39" y="31" width="312" height="100" rx="28.25"/><image width="344" height="565" transform="translate(33 78) scale(0.94 1)" xlink:href="../v%C3%A6rker/prototype.png"/><rect class="cls-2" x="32.42" y="21.79" width="324" height="678" rx="46.17"/><rect class="cls-3" x="363.42" y="175.79" width="4" height="76"/><rect class="cls-3" x="108.92" y="26.29" width="169" height="33" rx="13.86"/><path class="cls-3" d="M109.92,41.29c-1.19-1.19-.31-3.09-2-5a6.68,6.68,0,0,0-4-2h-16c-9.5,0-9.4,0-10,0-9.88.18-19,.36-26,4-12.27,6.39-14.24,21.61-16,21-1.6-.56-1.8-13.7,6-23,4.14-4.95,9.82-8,37-12,29-4.32,43.52-6.34,47,0,2.13,3.88-.2,9.8-3,13C119,41.7,112,43.4,109.92,41.29Z"/><path class="cls-3" d="M276,42.85c1.18-1.19.31-3.08,2-5a6.68,6.68,0,0,1,4-2h26c9.87.19,19,.36,26,4,12.26,6.39,14.23,21.61,16,21,1.59-.55,1.79-13.69-6-23-4.15-4.94-9.83-8-37-12-29-4.31-43.53-6.34-47,0-2.14,3.89.19,9.81,3,13C266.92,43.27,273.93,45,276,42.85Z"/><rect class="cls-4" x="169.92" y="36.29" width="50" height="7" rx="3.5"/><circle class="cls-4" cx="236.42" cy="38.79" r="4.5"/></svg>
