<svg id="Layer_1" data-name="Layer 1" xmlns="http://www.w3.org/2000/svg" xmlns:xlink="http://www.w3.org/1999/xlink" width="392" height="726" viewBox="0 0 392 726"><defs><style>.cls-1{fill:none;stroke:#191919;stroke-miterlimit:10;stroke-width:15px;}.cls-2{fill:#191919;}.cls-3{fill:#262626;}</style></defs><title>gorlubbphone</title><rect x="31.5" y="37" width="321" height="70" rx="29.57"/><image width="471" height="925" transform="translate(32.08 65.49) scale(0.68)" xlink:href="gorlubbphone1.png"/><rect class="cls-1" x="28.92" y="24.79" width="324" height="678" rx="46.17"/><rect class="cls-2" x="359.92" y="178.79" width="4" height="76"/><rect class="cls-2" x="105.42" y="29.29" width="169" height="33" rx="13.86"/><path class="cls-2" d="M106.42,44.29c-1.19-1.19-.31-3.09-2-5a6.68,6.68,0,0,0-4-2h-16c-9.5,0-9.4,0-10,0-9.88.18-19,.36-26,4-12.27,6.39-14.24,21.61-16,21-1.6-.56-1.8-13.7,6-23,4.14-4.95,9.82-8,37-12,29-4.32,43.52-6.34,47,0,2.13,3.88-.2,9.8-3,13C115.53,44.7,108.52,46.4,106.42,44.29Z"/><path class="cls-2" d="M272.54,45.85c1.18-1.19.31-3.08,2-5a6.68,6.68,0,0,1,4-2h26c9.87.19,19,.36,26,4,12.26,6.39,14.23,21.61,16,21,1.59-.55,1.79-13.69-6-23-4.15-4.94-9.83-8-37-12-29-4.31-43.53-6.34-47,0-2.14,3.89.19,9.81,3,13C263.42,46.27,270.43,48,272.54,45.85Z"/><rect class="cls-3" x="166.42" y="39.29" width="50" height="7" rx="3.5"/><circle class="cls-3" cx="232.92" cy="41.79" r="4.5"/></svg>
