<svg id="Layer_1" data-name="Layer 1" xmlns="http://www.w3.org/2000/svg" xmlns:xlink="http://www.w3.org/1999/xlink" width="1164" height="723" viewBox="0 0 1164 723"><defs><style>.cls-1{fill:none;stroke:#191919;stroke-miterlimit:10;stroke-width:21px;}.cls-2{fill:#191919;}.cls-3{fill:#262626;}.cls-4{fill:url(#linear-gradient);}.cls-5{fill:url(#linear-gradient-2);}</style><linearGradient id="linear-gradient" x1="20.61" y1="677.37" x2="1143.61" y2="677.37" gradientUnits="userSpaceOnUse"><stop offset="0.03" stop-color="#1f1f1f"/><stop offset="0.51" stop-color="#636363"/><stop offset="1" stop-color="#0f0f0f"/></linearGradient><linearGradient id="linear-gradient-2" x1="17.61" y1="663.4" x2="1143.61" y2="663.4" gradientUnits="userSpaceOnUse"><stop offset="0.03" stop-color="#2e2e2e"/><stop offset="0.51" stop-color="#949494"/><stop offset="1" stop-color="#262626"/></linearGradient></defs><title>haslap</title><image width="1127" height="640" transform="translate(138 79) scale(0.78 0.84)" xlink:href="../v%C3%A6rker/hashasshassan.png"/><rect class="cls-1" x="135.61" y="46.4" width="889.5" height="606.5" rx="29.53"/><rect class="cls-2" x="143.11" y="47.9" width="880" height="36"/><rect class="cls-2" x="125.61" y="618.4" width="910" height="35"/><rect class="cls-3" x="125.61" y="635.4" width="910" height="21"/><path class="cls-4" d="M20.61,673.4a260,260,0,0,0,93,13h941a342.77,342.77,0,0,0,49-4c14.36-2.23,40-7.16,40-9C1143.53,664.68,569.52,668.21,20.61,673.4Z"/><rect class="cls-5" x="17.61" y="653.4" width="1126" height="20"/><circle class="cls-3" cx="584.61" cy="61.4" r="5"/></svg>
