<svg id="Layer_1" data-name="Layer 1" xmlns="http://www.w3.org/2000/svg" xmlns:xlink="http://www.w3.org/1999/xlink" width="1164" height="723" viewBox="0 0 1164 723"><defs><style>.cls-1{fill:none;stroke:#191919;stroke-miterlimit:10;stroke-width:21px;}.cls-2{fill:#191919;}.cls-3{fill:#262626;}.cls-4{fill:url(#linear-gradient);}.cls-5{fill:url(#linear-gradient-2);}</style><linearGradient id="linear-gradient" x1="21" y1="687.97" x2="1144" y2="687.97" gradientUnits="userSpaceOnUse"><stop offset="0.03" stop-color="#1f1f1f"/><stop offset="0.51" stop-color="#636363"/><stop offset="1" stop-color="#0f0f0f"/></linearGradient><linearGradient id="linear-gradient-2" x1="18" y1="674" x2="1144" y2="674" gradientUnits="userSpaceOnUse"><stop offset="0.03" stop-color="#2e2e2e"/><stop offset="0.51" stop-color="#949494"/><stop offset="1" stop-color="#262626"/></linearGradient></defs><title>swisslap</title><image width="1422" height="723" transform="translate(144 94) scale(0.61 0.74)" xlink:href="../v%C3%A6rker/swisslap.png"/><rect class="cls-1" x="136" y="57" width="889.5" height="606.5" rx="29.53"/><rect class="cls-2" x="143.5" y="58.5" width="880" height="36"/><rect class="cls-2" x="126" y="629" width="910" height="35"/><rect class="cls-3" x="126" y="646" width="910" height="21"/><path class="cls-4" d="M21,684a260,260,0,0,0,93,13h941a342.77,342.77,0,0,0,49-4c14.37-2.23,40-7.16,40-9C1143.92,675.29,569.92,678.82,21,684Z"/><rect class="cls-5" x="18" y="664" width="1126" height="20"/><circle class="cls-3" cx="585" cy="72" r="5"/></svg>
