<?xml version="1.0" encoding="utf-8"?>
<!-- Generator: Adobe Illustrator 24.0.3, SVG Export Plug-In . SVG Version: 6.00 Build 0)  -->
<svg version="1.1" id="Layer_1" xmlns="http://www.w3.org/2000/svg" xmlns:xlink="http://www.w3.org/1999/xlink" x="0px" y="0px"
	 viewBox="0 0 392 726" style="enable-background:new 0 0 392 726;" xml:space="preserve">
<style type="text/css">
	.st0{fill:#FFFFFF;}
	.st1{fill:none;stroke:#191919;stroke-width:15;stroke-miterlimit:10;}
	.st2{fill:#191919;}
	.st3{fill:#262626;}
</style>
<title>swissphone</title>
<path class="st0" d="M81.1,33h250.7c18.8,0,34.1,15.3,34.1,34.1v19.7c0,18.8-15.3,34.1-34.1,34.1H81.1C62.3,121,47,105.7,47,86.9
	V67.1C47,48.3,62.3,33,81.1,33z"/>
<image style="overflow:visible;enable-background:new    ;" width="392" height="799" xlink:href="swissphone1.png"  transform="matrix(0.8059 0 0 0.8059 47.2677 50.906)">
</image>
<path class="st1" d="M91.6,24.8h231.7c25.5,0,46.2,20.7,46.2,46.2v585.7c0,25.5-20.7,46.2-46.2,46.2H91.6
	c-25.5,0-46.2-20.7-46.2-46.2V71C45.4,45.5,66.1,24.8,91.6,24.8z"/>
<rect x="376.4" y="178.8" class="st2" width="4" height="76"/>
<path class="st2" d="M135.8,29.3h141.3c7.7,0,13.9,6.2,13.9,13.9v5.3c0,7.7-6.2,13.9-13.9,13.9H135.8c-7.7,0-13.9-6.2-13.9-13.9
	v-5.3C121.9,35.5,128.1,29.3,135.8,29.3z"/>
<path class="st2" d="M122.9,44.3c-1.2-1.2-0.3-3.1-2-5c-1.1-1.1-2.5-1.8-4-2h-16c-9.5,0-9.4,0-10,0c-9.9,0.2-19,0.4-26,4
	c-12.3,6.4-14.2,21.6-16,21c-1.6-0.6-1.8-13.7,6-23c4.1-5,9.8-8,37-12c29-4.3,43.5-6.3,47,0c2.1,3.9-0.2,9.8-3,13
	C132,44.7,125,46.4,122.9,44.3z"/>
<path class="st2" d="M289,45.8c1.2-1.2,0.3-3.1,2-5c1.1-1.1,2.5-1.8,4-2h26c9.9,0.2,19,0.4,26,4c12.3,6.4,14.2,21.6,16,21
	c1.6-0.5,1.8-13.7-6-23c-4.1-4.9-9.8-8-37-12c-29-4.3-43.5-6.3-47,0c-2.1,3.9,0.2,9.8,3,13C279.9,46.3,286.9,48,289,45.8z"/>
<path class="st3" d="M186.4,39.3h43c1.9,0,3.5,1.6,3.5,3.5l0,0c0,1.9-1.6,3.5-3.5,3.5h-43c-1.9,0-3.5-1.6-3.5-3.5l0,0
	C182.9,40.9,184.5,39.3,186.4,39.3z"/>
<circle class="st3" cx="249.4" cy="41.8" r="4.5"/>
</svg>
